HIERARCHY
ROOT Hips
{
    OFFSET 0.000000 0.000000 0.000000
    CHANNELS 6 Xposition Yposition Zposition Zrotation Xrotation Yrotation
    JOINT Spine
    {
        OFFSET -0.000000 0.081343 0.000000
        CHANNELS 3 Zrotation Xrotation Yrotation
        JOINT Spine1
        {
            OFFSET -0.000000 0.243280 0.000000
            CHANNELS 3 Zrotation Xrotation Yrotation
            JOINT Neck
            {
                OFFSET -0.000000 0.242281 0.022026
                CHANNELS 3 Zrotation Xrotation Yrotation
                JOINT Head
                {
                    OFFSET -0.000000 0.149025 -0.021289
                    CHANNELS 3 Zrotation Xrotation Yrotation
                    End Site
                    {
                        OFFSET -0.000000 0.198396 0.000000
                    }
                }
            }
            JOINT LeftShoulder
            {
                OFFSET 0.039707 0.224479 -0.002125
                CHANNELS 3 Zrotation Xrotation Yrotation
                JOINT LeftArm
                {
                    OFFSET 0.116942 0.000000 0.000000
                    CHANNELS 3 Zrotation Xrotation Yrotation
                    JOINT LeftForeArm
                    {
                        OFFSET 0.282002 0.000000 0.000000
                        CHANNELS 3 Zrotation Xrotation Yrotation
                        JOINT LeftHand
                        {
                            OFFSET 0.358743 0.000000 0.000000
                            CHANNELS 3 Zrotation Xrotation Yrotation
                            End Site
                            {
                                OFFSET 0.148797 0.000000 0.000000
                            }
                        }
                    }
                }
            }
            JOINT RightShoulder
            {
                OFFSET -0.039404 0.224479 -0.002125
                CHANNELS 3 Zrotation Xrotation Yrotation
                JOINT RightArm
                {
                    OFFSET -0.116942 0.000000 0.000000
                    CHANNELS 3 Zrotation Xrotation Yrotation
                    JOINT RightForeArm
                    {
                        OFFSET -0.282002 0.000000 0.000000
                        CHANNELS 3 Zrotation Xrotation Yrotation
                        JOINT RightHand
                        {
                            OFFSET -0.358743 0.000000 0.000000
                            CHANNELS 3 Zrotation Xrotation Yrotation
                            End Site
                            {
                                OFFSET -0.148797 0.000000 0.000000
                            }
                        }
                    }
                }
            }
        }
    }
    JOINT LeftUpLeg
    {
        OFFSET 0.099198 0.000000 0.000000
        CHANNELS 3 Zrotation Xrotation Yrotation
        JOINT LeftLeg
        {
            OFFSET -0.000000 -0.332973 0.000000
            CHANNELS 3 Zrotation Xrotation Yrotation
            JOINT LeftFoot
            {
                OFFSET -0.000000 -0.491254 0.000000
                CHANNELS 3 Zrotation Xrotation Yrotation
                JOINT LeftToeBase
                {
                    OFFSET -0.000000 -0.064479 0.148797
                    CHANNELS 3 Zrotation Xrotation Yrotation
                    End Site
                    {
                        OFFSET -0.000000 0.000000 0.039679
                    }
                }
            }
        }
    }
    JOINT RightUpLeg
    {
        OFFSET -0.099198 0.000000 0.000000
        CHANNELS 3 Zrotation Xrotation Yrotation
        JOINT RightLeg
        {
            OFFSET -0.000000 -0.332973 0.000000
            CHANNELS 3 Zrotation Xrotation Yrotation
            JOINT RightFoot
            {
                OFFSET -0.000000 -0.491254 0.000000
                CHANNELS 3 Zrotation Xrotation Yrotation
                JOINT RightToeBase
                {
                    OFFSET -0.000000 -0.064479 0.148797
                    CHANNELS 3 Zrotation Xrotation Yrotation
                    End Site
                    {
                        OFFSET -0.000000 0.000000 0.039679
                    }
                }
            }
        }
    }
}
MOTION
Frames:    7
Frame Time:    0.010000
-0.675760    0.780268    0.768338    -1.144681    7.307263    -75.340385    -5.342275    5.750641    2.734340    -1.963589    6.455338    0.924635    8.785233    15.269276    22.815697    -7.899239    -19.642061    21.266998    -1.704895    17.654987    -11.037114    -11.440745    26.308342    -40.731335    28.274063    15.105491    -42.734200    37.088127    18.371588    -23.241060    2.650512    25.586584    19.336224    30.028511    39.588326    31.821932    -29.258627    -8.932629    39.784245    16.026358    2.193354    2.184917    48.991009    -34.910244    13.798178    -28.653025    40.421825    20.505938    -12.052450    -6.395720    -12.394784    0.000000    0.000000    0.000000    -27.598946    -4.589599    -16.103403    4.402445    25.777569    -5.702610    31.039532    1.610661    -20.470438    0.000000    0.000000    0.000000    
-0.675304    0.781388    0.775304    -1.137755    7.324585    -75.315536    -5.822455    5.890070    2.692633    -2.137812    6.679955    0.913395    9.398146    14.980825    23.155687    -8.073110    -19.979485    21.515467    -1.278183    17.831490    -11.799409    -11.300736    26.785126    -40.080441    27.379576    15.414310    -43.309982    37.546085    18.517189    -22.818760    3.214123    25.694349    18.676968    30.724348    38.584126    31.845152    -30.091539    -6.759076    38.925690    16.060591    4.523730    2.730013    48.619404    -35.226192    14.001932    -28.761784    41.062851    19.951355    -11.605940    -6.897372    -11.921817    0.000000    0.000000    0.000000    -27.646540    -4.352536    -15.244168    4.407064    24.858738    -5.983141    31.266464    2.902534    -22.216120    0.000000    0.000000    0.000000    
-0.679348    0.785099    0.778320    -2.266798    7.578810    -75.942139    -7.156317    6.620263    3.460167    -0.978713    7.027202    1.062963    10.260465    14.758916    23.551775    -8.782082    -19.941942    21.686462    -0.919596    18.391232    -12.411283    -11.353783    27.489412    -39.421471    27.055834    14.886474    -43.737392    37.662071    18.147797    -22.254671    3.601041    25.910679    18.031170    31.277328    38.309132    32.070892    -30.868328    -5.467082    37.670517    13.409772    5.265170    -0.644181    48.966087    -33.094456    13.788034    -29.068436    40.509037    19.559282    -11.338422    -7.060366    -12.010427    0.000000    0.000000    0.000000    -26.245623    -3.139065    -12.470865    3.991948    23.389647    -6.881467    31.237358    4.125869    -23.561592    0.000000    0.000000    0.000000    
-0.679109    0.787119    0.785616    -2.298281    7.679500    -75.646996    -7.597136    6.864593    3.073928    -0.825661    7.043710    0.909728    10.449352    14.656253    24.014507    -8.983502    -20.314606    22.068174    -0.882538    19.022856    -12.670360    -11.517068    28.236811    -38.772083    26.907263    13.896814    -44.159847    36.855427    17.856224    -20.862228    3.821847    26.082661    17.442802    31.665947    38.075176    32.464905    -30.801140    -4.728778    37.002625    9.296046    5.573295    -3.391529    48.425922    -33.398853    12.844828    -29.637421    40.403587    20.546696    -10.959992    -7.334346    -12.267388    0.000000    0.000000    0.000000    -26.306164    -2.668801    -11.832035    4.023331    22.574263    -7.179585    30.597498    5.717946    -24.344431    0.000000    0.000000    0.000000    
-0.675198    0.785645    0.793407    -0.553853    8.387940    -74.684570    -7.397667    5.491833    1.775928    -0.261917    6.891781    0.478151    9.208358    14.750248    24.296919    -8.661959    -21.040411    22.434353    -1.946839    19.747023    -12.769620    -11.419172    29.196938    -38.049347    27.111753    12.681187    -44.491547    35.996365    17.323757    -19.876011    3.145865    26.441174    17.010921    32.230213    38.347038    33.005856    -31.823906    -4.029998    35.933445    7.531866    6.436473    -2.129643    48.836342    -36.634483    13.170837    -30.590849    41.288857    21.200138    -10.396531    -7.929594    -11.609078    0.000000    0.000000    0.000000    -26.915981    -3.829349    -13.319487    4.430434    22.363848    -7.137434    31.072025    6.882370    -25.308783    0.000000    0.000000    0.000000    
-0.674846    0.787892    0.801035    -0.605963    8.559583    -74.629646    -7.798438    5.756818    1.281613    0.180515    6.828927    0.273182    9.002447    14.927927    24.924587    -9.053242    -21.651110    22.940273    -2.765342    20.420218    -12.011644    -11.579553    30.345125    -37.775120    27.083569    10.042264    -45.207767    31.927301    17.059599    -14.960934    2.795190    27.018576    17.442091    32.546131    39.282944    33.025517    -33.307465    -4.509118    34.448006    5.677474    5.982823    -3.012884    48.700054    -37.443298    16.528067    -29.392790    44.097519    20.447664    -9.229885    -9.588857    -12.895783    0.000000    0.000000    0.000000    -27.039749    -3.666925    -12.467288    4.480508    21.820269    -7.571055    30.734346    8.846078    -25.619488    0.000000    0.000000    0.000000    
-0.679392    0.792766    0.802577    -1.889754    9.312287    -75.846169    -8.712060    6.297562    2.374123    1.033943    7.459456    0.548190    10.621460    14.280575    25.486498    -10.119342    -20.887194    23.174004    -2.315650    20.780470    -11.439498    -12.700662    30.728365    -37.575954    27.366489    9.076024    -46.166241    29.446573    17.555660    -12.167853    3.991440    26.899998    16.843567    32.187778    40.034657    32.971050    -33.744892    -4.253250    33.698460    3.740546    6.172151    -3.490114    49.888439    -34.510075    17.064199    -28.984589    43.455757    18.415569    -9.450064    -9.680343    -12.716601    0.000000    0.000000    0.000000    -24.973669    -3.037065    -8.980515    3.859649    20.802750    -8.331909    31.597889    9.641386    -26.878851    0.000000    0.000000    0.000000    
